<svg width="122.88" height="107.38" xmlns="http://www.w3.org/2000/svg" data-name="Layer 1">
 <title>customer-care</title>

 <g>
  <title>Layer 1</title>
  <path fill="#3a86ff" id="svg_1" d="m81.75,54.65l-0.53,1.64l-0.08,0.14l-0.07,0.09a7.23,7.23 0 0 1 -2,0.23a12.84,12.84 0 0 0 0.61,-5.63l0,0a1.53,1.53 0 0 1 0.61,-1.35a6.82,6.82 0 0 0 2.38,-3.39l0.33,-2.61a4.93,4.93 0 0 0 -0.19,-1.05c0,-0.12 -0.08,-0.21 -0.11,-0.29l-0.26,0a1.53,1.53 0 0 1 -1.44,-1.52c0.05,-4.92 -0.47,-8 -1.37,-10.13c-1.52,-2.57 -3.87,-3.87 -6.67,-5.27c-0.49,-0.21 -1,-0.44 -1.5,-0.7c-9.13,9.54 -16.69,-2.73 -27.52,15.75l-0.37,0c-0.14,0.32 -0.29,0.64 -0.43,1l-0.08,0.16a1.53,1.53 0 0 1 -2.09,0.56q-0.37,-0.21 -0.42,-0.18c-0.06,0 -0.13,0.16 -0.22,0.37a4.7,4.7 0 0 0 -0.33,1.53c-0.11,2.16 0.59,5 2,6.37a1.51,1.51 0 0 1 0.47,1.06c0.16,6.6 3.09,9.12 6.65,12.19l1.5,1.3c3.57,3.18 7.34,4.82 11,4.82s7.19,-1.54 10.51,-4.74l2.42,0l0.26,0c0.49,0 1.11,0 1.81,0l-0.81,0.77l-1.48,1.4c-4,3.81 -8.26,5.65 -12.64,5.65s-8.92,-1.91 -13.07,-5.6l-1.46,-1.28c-3.51,-3 -6.49,-5.59 -7.42,-11.21l-4.82,0.39a3.58,3.58 0 0 1 -4.05,-2.93l-1.87,-14.78a3.55,3.55 0 0 1 3.21,-3.91l1.57,-0.13a1.78,1.78 0 0 1 -0.16,-0.65c-0.94,-15.35 5.68,-25 14.63,-29.63a29.77,29.77 0 0 1 29.11,1.51c8.18,5.27 13.52,14.91 11.12,28.32a2.45,2.45 0 0 1 -0.18,0.54l2.39,0.27a3.81,3.81 0 0 1 3.39,4.27l-1.85,14.06a3.93,3.93 0 0 1 -4.39,3.29l0,0a28.24,28.24 0 0 1 -1,3.13a7,7 0 0 1 -1.5,2.33c-2,2.06 -8.46,2.06 -10.75,2.06l-6,0a7,7 0 0 1 -5.25,2c-3.32,0 -6,-1.76 -6,-3.93s2.68,-3.93 6,-3.93a7.06,7.06 0 0 1 5.06,1.99l6.15,0c1.8,0 7.14,0 8.06,-0.93a3,3 0 0 0 0.64,-1l0.68,-2.12l-2.18,-0.25l0,-0.05zm-43.75,-27.48c3.4,-15.86 21.89,-25.75 39.44,-15.68a18.7,18.7 0 0 1 4.27,3.36a21.12,21.12 0 0 0 -6.82,-7a24.84,24.84 0 0 0 -12.07,-3.85a24.39,24.39 0 0 0 -12.42,2.53c-6.58,3.36 -11.68,10.12 -12.4,20.64zm6.78,45.83l9.22,24.19l4.64,-13.19l-2.27,-2.48c-1.71,-2.5 -1.12,-5.33 2,-5.84a22.86,22.86 0 0 1 3.43,-0.07a18.09,18.09 0 0 1 3.77,0.15c2.94,0.64 3.25,3.49 1.78,5.76l-2.23,2.48l4.63,13.2l8.35,-24.2c6,5.42 27.21,6.51 33.84,10.2c9.18,5.14 8.93,15 10.94,24.2l-122.88,0c2,-9.11 1.79,-19.14 10.94,-24.2c8.15,-4.55 27.17,-4.2 33.84,-10.2z"/>
 </g>
</svg>