<svg width="512" height="483.04" xmlns="http://www.w3.org/2000/svg" clip-rule="evenodd" fill-rule="evenodd" image-rendering="optimizeQuality" text-rendering="geometricPrecision" shape-rendering="geometricPrecision">

 <g>
  <title>Layer 1</title>
  <path fill="#3a86ff" id="svg_1" d="m42.38,274.75c-45.76,-23.25 -40.5,-49.17 5.46,-46.46l10.29,19.29l14.18,-44.08c-7.52,-2.46 -14.27,-6.68 -19.76,-12.17l-1.05,-1.14c-8.37,-8.91 -13.54,-20.88 -13.54,-33.94l0,-106.56c0,-13.68 5.59,-26.11 14.58,-35.11c9,-8.99 21.43,-14.58 35.1,-14.58l336.71,0c13.61,0 26.04,5.62 35.05,14.63c9.04,8.97 14.64,21.42 14.64,35.06l0,106.56c0,13.56 -5.62,25.99 -14.62,35.01l-0.09,0.09a50.01,50.01 0 0 1 -6.13,5.22l12.2,48.97l9.16,-17.25c47.25,-2.75 51.46,24.71 1.45,48.42l8.14,12.46c32.87,33.79 29.79,67.53 24.66,150.99l0,27.41c0,8.51 -6.96,15.47 -15.46,15.47l-65.96,0c-8.5,0 -15.46,-6.96 -15.46,-15.46l0,-12.43l-311.76,0l0,12.42c0,8.51 -6.96,15.47 -15.46,15.47l-65.96,0c-8.5,0 -15.46,-6.96 -15.46,-15.46l0,-35.63c0,-0.83 0.09,-1.62 0.17,-2.41c-5,-64.05 -12.04,-121.79 38.92,-154.79zm142.61,-134.09l-26.54,0l-9.89,-22.44l-5.19,0l0,22.44l-24.12,0l0,-75.38l37.99,0c17.3,0 25.94,8.8 25.94,26.41c0,12.06 -3.74,20.02 -11.22,23.89l13.03,25.08zm-41.62,-56.09l0,15.08l5.55,0c2.9,0 5.01,-0.3 6.34,-0.9c1.33,-0.61 1.98,-2 1.98,-4.17l0,-4.94c0,-2.17 -0.65,-3.56 -1.98,-4.16c-1.33,-0.61 -3.44,-0.91 -6.34,-0.91l-5.55,0zm99.21,27.63l-24.12,0l0,9.16l29.55,0l0,19.3l-53.67,0l0,-75.38l53.07,0l-3.01,19.29l-25.94,0l0,10.14l24.12,0l0,17.49zm60.85,28.46l-18.45,-26.78c-0.64,-0.88 -1.05,-2.81 -1.21,-5.78l-0.48,0l0,32.56l-24.12,0l0,-75.38l22.67,0l18.45,26.77c0.65,0.89 1.05,2.81 1.21,5.79l0.49,0l0,-32.56l24.12,0l0,75.38l-22.68,0zm89.33,-56.09l-17.5,0l0,56.09l-24.12,0l0,-56.09l-17.49,0l0,-19.29l59.11,0l0,19.29zm-305.12,-66.97l336.71,0c17.66,0 32.09,14.5 32.09,32.09l0,106.56c0,17.59 -14.5,32.09 -32.09,32.09l-336.71,0c-17.58,0 -32.09,-14.43 -32.09,-32.09l0,-106.56c0,-17.66 14.43,-32.09 32.09,-32.09zm340.69,188.17c-1.32,0.12 -2.63,0.17 -3.98,0.17l-327.35,0l-16.87,56.19l0,3.11l0,-3.11l361.76,0l-13.56,-56.36zm-301.74,144.93l-58.58,-7.38c-13.84,-1.54 -17.55,4.3 -12.84,16.21l6.34,15.38c2.03,3.96 4.74,6.83 7.91,8.83c3.71,2.29 8.17,3.42 13.13,3.62l52.25,0.42c12.62,-0.04 18.08,-5.08 14.12,-16.66c-3.24,-10.88 -10.66,-17.71 -22.33,-20.42zm258.84,0l58.59,-7.38c13.83,-1.54 17.53,4.3 12.83,16.21l-6.33,15.38c-2.04,3.96 -4.75,6.83 -7.92,8.83c-3.71,2.29 -8.17,3.42 -13.12,3.62l-52.25,0.42c-12.64,-0.04 -18.09,-5.08 -14.13,-16.66c3.25,-10.88 10.67,-17.71 22.33,-20.42z"/>
 </g>
</svg>