<svg width="122.88" height="116.34" xmlns="http://www.w3.org/2000/svg" data-name="Layer 1">

 <title>car-driving-on-the-road</title>
 <g>
  <title>Layer 1</title>
  <path fill="#3a86ff" id="svg_1" fill-rule="evenodd" d="m0,116.34l30.11,-116.34l7,0l-26.11,116.34l-11,0zm28.85,-32.64c-7.17,-3.64 -6.34,-7.7 0.86,-7.28l1.61,3l3.32,-10.34c1.36,-4.08 3.48,-7.73 7.75,-7.73l41,0c4.27,0 6.72,3.62 7.75,7.75l2.5,10l1.36,-2.68c7.41,-0.43 8.07,3.87 0.23,7.59l1.3,1.99c5.15,5.3 4.66,10.58 3.86,23.66l0,4.3a2.43,2.43 0 0 1 -2.39,2.38l-10.37,0a2.43,2.43 0 0 1 -2.42,-2.42l0,-2l-47.3,0l0,2a2.43,2.43 0 0 1 -2.42,2.42l-10.34,0a2.43,2.43 0 0 1 -2.42,-2.42l0,-5.58a2.25,2.25 0 0 1 0,-0.38c-0.79,-10 -1.89,-19.09 6.09,-24.26l0.03,0zm13.2,11.9l-9.18,-1.15c-2.17,-0.24 -2.75,0.67 -2,2.54l1,2.41a3.42,3.42 0 0 0 1.24,1.38a4.16,4.16 0 0 0 2.06,0.57l8.18,0.06c2,0 2.84,-0.79 2.22,-2.61a4.44,4.44 0 0 0 -3.5,-3.2l-0.02,0zm39,0l9.18,-1.15c2.16,-0.24 2.75,0.67 2,2.54l-1,2.41a3.49,3.49 0 0 1 -1.23,1.38a4.19,4.19 0 0 1 -2.06,0.57l-8.19,0.06c-2,0 -2.83,-0.79 -2.21,-2.61a4.44,4.44 0 0 1 3.5,-3.2l0.01,0zm-46.28,-13.88l55.13,0l-2.5,-10.39c-0.68,-3.17 -2.65,-5.91 -5.91,-5.91l-37.69,0c-3.25,0 -4.91,2.82 -5.91,5.91l-3.12,10.39l0,0zm29.37,-81.72l0.42,10.56l-6.43,0l0.63,-10.56l5.38,0zm-8.09,48.37l10.59,0l0.6,7.31l-11.69,0l0.5,-7.31zm1.63,-27.2l7.58,0l0.79,16.66l-9.22,0l0.85,-16.66zm35.72,-21.17l29.48,116.33l-10.46,0l-26.58,-116.33l7.56,0z" class="cls-1"/>
 </g>
</svg>