<svg id="visual" viewBox="0 0 1920 1080" width="1920" height="1080" xmlns="http://www.w3.org/2000/svg" xmlns:xlink="http://www.w3.org/1999/xlink" version="1.1"><rect x="0" y="0" width="1920" height="1080" fill="#24252A"></rect><path d="M0 760L35.5 762.2C71 764.3 142 768.7 213.2 774C284.3 779.3 355.7 785.7 426.8 793.7C498 801.7 569 811.3 640 826.2C711 841 782 861 853.2 873.3C924.3 885.7 995.7 890.3 1066.8 888.8C1138 887.3 1209 879.7 1280 860.2C1351 840.7 1422 809.3 1493.2 790.5C1564.3 771.7 1635.7 765.3 1706.8 765.7C1778 766 1849 773 1884.5 776.5L1920 780L1920 1081L1884.5 1081C1849 1081 1778 1081 1706.8 1081C1635.7 1081 1564.3 1081 1493.2 1081C1422 1081 1351 1081 1280 1081C1209 1081 1138 1081 1066.8 1081C995.7 1081 924.3 1081 853.2 1081C782 1081 711 1081 640 1081C569 1081 498 1081 426.8 1081C355.7 1081 284.3 1081 213.2 1081C142 1081 71 1081 35.5 1081L0 1081Z" fill="#3a86ff" stroke-linecap="round" stroke-linejoin="miter"></path></svg>