<svg id="visual" viewBox="0 0 1920 1080" width="1920" height="1080" xmlns="http://www.w3.org/2000/svg" xmlns:xlink="http://www.w3.org/1999/xlink" version="1.1"><rect x="0" y="0" width="1920" height="1080" fill="#ffffff"></rect><path d="M0 168L53.3 177.2C106.7 186.3 213.3 204.7 320 199.3C426.7 194 533.3 165 640 164.5C746.7 164 853.3 192 960 204.8C1066.7 217.7 1173.3 215.3 1280 210.7C1386.7 206 1493.3 199 1600 188.5C1706.7 178 1813.3 164 1866.7 157L1920 150L1920 0L1866.7 0C1813.3 0 1706.7 0 1600 0C1493.3 0 1386.7 0 1280 0C1173.3 0 1066.7 0 960 0C853.3 0 746.7 0 640 0C533.3 0 426.7 0 320 0C213.3 0 106.7 0 53.3 0L0 0Z" fill="#3a86ff" stroke-linecap="round" stroke-linejoin="miter"></path></svg>